# xmcd
#
# Track frame offsets:
#       150
#       14022
#       23250
#       34425
#       46575
#       55595
#       66102
#       75705
#       91942
#       102090
#       113487
#       127042
#       138390
#       151542
#       162367
#       173002
#
# Disc length: 2457 seconds
#
# Revision: 2
# Processed by: cddbd v1.5.2PL0 Copyright (c) Steve Scherf et al.
# Submitted via: FreeDbEdit v0.1
#
DISCID=b7099710
DTITLE=The Stanley Brothers - 16 Greatest Gospel Hits
DYEAR=1987
DGENRE=Gospel
TTITLE0=Rank Strangers
TTITLE1=Jordan
TTITLE2=Gathering Flowers for the Master's Bougquet
TTITLE3=Drinking From the Fountain
TTITLE4=John Three Sixteen
TTITLE5=Paul and Silas
TTITLE6=Who Will Sing for Me
TTITLE7=Thy Burdens Are Greater Than Mine
TTITLE8=Jocob's Vision
TTITLE9=Over the Glory Land
TTITLE10=White Dove
TTITLE11=Village Church Yard
TTITLE12=Shouting on the Hills of Glory
TTITLE13=Mother Left Me Her Bible
TTITLE14=I'll Fly Away
TTITLE15=Going Up Home
EXTD=Highland Music
EXTT0=
EXTT1=
EXTT2=
EXTT3=
EXTT4=
EXTT5=
EXTT6=
EXTT7=
EXTT8=
EXTT9=
EXTT10=
EXTT11=
EXTT12=
EXTT13=
EXTT14=
EXTT15=
PLAYORDER=
